<?xml version="1.0" standalone="no"?>
<!DOCTYPE svg PUBLIC "-//W3C//DTD SVG 20010904//EN"
 "http://www.w3.org/TR/2001/REC-SVG-20010904/DTD/svg10.dtd">
<svg version="1.0" xmlns="http://www.w3.org/2000/svg"
 width="400.000000pt" height="450.000000pt" viewBox="0 0 400.000000 450.000000"
 preserveAspectRatio="xMidYMid meet">
<metadata>
Created by potrace 1.11, written by Peter Selinger 2001-2013
</metadata>
<g transform="translate(0.000000,450.000000) scale(0.100000,-0.100000)"
fill="#000000" stroke="none">
<path d="M3358 4353 c-23 -16 -39 -36 -43 -55 -6 -26 -9 -28 -23 -15 -10 8
-43 17 -75 20 -53 5 -61 3 -90 -22 -50 -43 -145 -85 -161 -72 -10 9 -23 4 -54
-21 -48 -39 -54 -51 -44 -98 8 -34 7 -35 -41 -57 -27 -13 -53 -23 -57 -23 -5
0 -10 17 -12 38 l-3 37 -84 3 -83 3 4 -73 c5 -70 4 -75 -29 -120 -19 -26 -32
-52 -29 -57 3 -4 19 -14 36 -21 30 -12 30 -12 13 -41 -19 -32 -25 -34 -53 -19
-22 12 -110 -6 -110 -21 0 -5 5 -18 12 -29 18 -28 -5 -151 -37 -198 -14 -20
-25 -42 -25 -48 0 -10 -10 -23 -66 -86 -13 -16 -35 -28 -47 -28 -36 0 -53 -20
-77 -92 -14 -43 -28 -69 -39 -73 -10 -3 -35 -21 -54 -40 -42 -41 -48 -42 -72
-15 -13 14 -18 36 -18 74 0 48 4 58 29 80 16 14 45 30 65 36 25 7 51 28 85 68
42 50 52 69 63 128 7 38 19 74 25 79 24 19 36 54 43 117 4 41 12 69 24 80 9 9
20 31 24 48 6 25 2 37 -16 56 -21 22 -30 24 -117 24 -87 0 -98 2 -129 26 -39
30 -42 55 -11 118 l21 45 -24 35 c-20 30 -30 36 -61 36 -34 0 -39 -4 -68 -55
-19 -34 -29 -62 -25 -74 8 -27 -14 -69 -47 -85 -27 -14 -28 -13 -28 8 0 14 -9
27 -24 34 -21 9 -30 6 -65 -21 -28 -21 -41 -39 -41 -55 0 -15 -5 -22 -12 -19
-116 45 -159 72 -184 114 -14 25 -24 46 -22 47 1 1 21 8 44 14 48 14 94 53 94
80 0 20 -39 52 -64 52 -15 0 -26 -21 -26 -51 0 -17 -8 -19 -66 -19 -39 0 -79
6 -99 16 -19 8 -44 14 -57 12 -20 -3 -23 -8 -20 -38 2 -19 14 -51 27 -71 l23
-36 -119 -7 c-65 -4 -123 -4 -129 -1 -5 3 -13 20 -18 38 -5 20 -18 37 -36 46
-20 9 -25 16 -17 24 6 6 11 26 11 44 0 28 -6 35 -39 52 -40 21 -51 19 -51 -9
0 -12 -8 -15 -34 -12 -29 3 -35 9 -38 31 -3 23 -7 26 -43 26 l-40 0 -3 -57
c-2 -32 -7 -58 -12 -58 -6 0 -10 -20 -10 -45 0 -41 -2 -45 -24 -45 -18 0 -23
4 -19 18 6 23 -33 42 -87 42 -21 0 -42 5 -45 10 -15 24 -32 6 -53 -56 -13 -36
-21 -69 -18 -72 3 -3 16 -1 28 5 37 16 129 -33 98 -52 -5 -3 -10 -17 -10 -31
0 -31 41 -50 72 -33 14 8 64 8 178 -1 88 -7 163 -9 169 -6 5 3 7 15 4 26 -4
14 0 20 12 20 9 0 19 9 22 20 4 16 14 20 44 20 21 0 41 5 44 10 12 19 21 10
40 -42 22 -61 25 -71 32 -118 4 -24 8 -30 12 -18 5 13 10 7 23 -23 l17 -39
-25 0 c-21 0 -30 -10 -54 -66 -17 -36 -30 -74 -30 -83 0 -11 -15 -25 -39 -36
-33 -14 -45 -15 -73 -6 -29 10 -34 9 -48 -9 -22 -29 -50 -17 -50 20 0 38 -10
43 -57 27 -29 -10 -38 -18 -36 -33 1 -11 -8 -53 -21 -93 l-23 -74 -24 24 c-18
18 -36 24 -76 26 l-52 2 -3 -67 -3 -67 -84 -7 c-58 -5 -98 -14 -128 -30 -38
-20 -43 -27 -41 -53 3 -29 5 -30 56 -33 l52 -3 0 -40 0 -39 50 0 c39 0 50 -4
50 -16 0 -13 -13 -15 -92 -13 -86 3 -91 2 -99 -19 -5 -12 -15 -22 -24 -22 -11
0 -15 -11 -15 -40 0 -29 4 -40 15 -40 19 0 19 -29 0 -54 -43 -57 0 -122 97
-149 189 -54 319 -87 341 -87 20 0 27 -5 27 -20 0 -17 -7 -20 -42 -20 -24 0
-61 7 -83 14 -29 10 -45 11 -59 4 -15 -8 -22 -7 -30 4 -7 10 -39 17 -90 22
-91 8 -96 10 -96 37 0 11 -7 22 -14 25 -19 7 -65 -26 -66 -46 0 -26 85 -90
118 -90 35 0 42 -13 42 -76 0 -29 -4 -43 -12 -41 -6 1 -14 -7 -16 -17 -5 -23
22 -46 55 -46 20 0 23 -5 23 -35 0 -28 5 -38 24 -46 26 -12 62 -81 52 -98 -10
-16 -37 -14 -57 4 -15 14 -18 14 -31 1 -8 -8 -33 -17 -54 -21 -21 -3 -54 -8
-72 -11 -18 -3 -32 -11 -32 -19 0 -8 -15 -17 -35 -21 -39 -7 -65 -27 -65 -50
0 -20 76 -53 120 -54 52 0 76 -20 25 -20 -23 0 -57 -10 -80 -23 -38 -21 -40
-26 -43 -74 l-3 -52 -67 -6 c-37 -3 -88 -11 -114 -17 l-48 -10 1 -126 c0 -70
3 -145 7 -167 7 -39 8 -40 55 -43 41 -3 48 0 55 19 7 19 10 20 15 6 5 -14 22
-17 79 -19 70 -2 71 -2 15 -5 -52 -4 -57 -6 -57 -28 0 -21 -5 -24 -43 -27 -31
-2 -41 -7 -38 -18 2 -8 3 -25 3 -37 -1 -12 3 -25 9 -28 6 -4 14 -18 19 -30 5
-13 22 -31 39 -39 26 -14 33 -14 57 -1 16 8 31 11 34 6 6 -10 166 -91 180 -91
8 0 40 61 40 76 0 2 -25 22 -56 45 l-56 41 78 80 c69 70 412 340 451 355 8 3
27 -7 43 -22 l30 -28 34 74 c19 41 73 146 120 234 l85 159 40 1 c23 1 41 -3
41 -7 0 -15 -83 -272 -128 -398 -40 -112 -45 -134 -46 -218 l-1 -94 80 -29
c163 -59 165 -60 165 -80 0 -10 -14 -56 -30 -101 -17 -46 -28 -88 -25 -95 6
-18 75 -16 89 2 9 13 17 13 53 3 l42 -13 -85 -154 c-46 -85 -86 -156 -88 -158
-5 -5 -76 24 -76 31 0 3 4 16 9 29 14 36 -39 120 -72 115 -28 -4 -35 -43 -11
-69 22 -24 4 -49 -36 -49 -15 0 -32 -6 -38 -12 -8 -11 -43 -435 -42 -520 0
-18 7 -29 21 -33 11 -4 33 -20 49 -35 l30 -29 -30 -66 c-24 -54 -28 -73 -22
-98 9 -32 9 -32 70 -30 52 2 62 0 67 -16 8 -25 35 -35 50 -19 7 7 29 55 50
106 40 98 39 111 -7 112 -22 0 -24 51 -7 130 12 56 14 57 89 20 44 -21 96 -9
104 25 5 18 11 21 36 17 28 -4 30 -2 30 25 0 22 -7 33 -26 42 -22 10 -25 16
-19 39 9 34 21 42 71 42 40 0 41 1 50 43 l9 42 53 0 c28 -1 119 -2 201 -3
l149 -2 6 -53 c11 -83 9 -82 121 -63 135 23 145 23 145 2 0 -14 55 -30 71 -20
5 3 9 25 9 49 0 49 9 56 66 48 22 -2 64 0 95 4 l56 9 10 -75 c6 -42 10 -77 9
-78 -1 -1 -60 -15 -131 -30 l-130 -29 3 -53 c3 -65 16 -91 43 -91 17 0 18 -3
9 -21 -9 -16 -5 -40 21 -117 17 -53 38 -103 47 -109 25 -20 52 -15 74 12 15
19 29 25 60 25 31 0 41 4 45 20 3 11 13 20 22 20 9 0 21 4 27 9 5 5 22 11 38
13 23 2 32 10 41 38 8 25 18 36 36 38 13 2 36 15 51 29 22 21 25 30 18 54 -7
22 -5 31 7 37 8 5 13 19 11 33 -3 23 -6 24 -65 21 l-63 -4 0 31 c0 29 2 31 50
37 28 4 53 10 56 15 2 5 -7 18 -21 31 -30 26 -33 48 -5 48 26 0 25 8 -5 82
-14 34 -25 64 -25 68 0 4 25 13 55 20 85 20 85 21 61 120 -21 84 -21 85 -55
90 -29 4 -37 12 -52 48 -14 33 -15 42 -5 42 8 0 28 16 46 36 29 34 31 40 25
88 -9 63 -16 71 -63 67 -36 -2 -41 1 -78 51 -32 42 -64 99 -64 111 0 1 42 2
92 2 l93 0 9 72 c8 68 7 79 -23 161 -17 48 -31 98 -31 111 0 22 3 23 65 19 35
-1 68 2 73 7 8 9 32 112 32 137 0 4 -30 8 -66 8 l-66 0 -21 50 c-17 40 -27 52
-51 58 -21 6 -32 16 -36 33 -5 19 -13 25 -43 27 -24 2 -39 -1 -42 -10 -4 -9
-18 -12 -45 -10 -22 2 -40 5 -40 7 0 6 42 211 45 222 3 8 21 6 66 -7 131 -40
291 -21 450 53 114 53 130 67 157 135 17 43 19 57 10 78 -9 19 -9 30 0 45 19
30 15 36 -42 68 l-54 31 -7 98 c-6 90 -5 102 19 166 l26 69 -46 45 -47 44 -61
-8 c-89 -11 -119 -10 -123 2 -2 7 16 20 41 29 49 19 53 27 59 150 l2 50 90 37
c70 28 91 41 96 60 3 13 29 47 57 76 46 47 55 52 94 52 50 0 68 13 68 50 0 20
-10 30 -44 49 -41 21 -44 25 -35 48 7 18 4 37 -12 74 -19 43 -20 53 -9 74 7
13 26 27 42 30 23 5 34 17 48 51 19 43 19 44 0 86 -27 59 -26 86 5 98 29 11
31 17 8 42 -20 23 -14 28 59 58 65 26 117 64 105 77 -9 8 -89 10 -207 4 -79
-4 -218 8 -226 20 -8 14 -27 9 -66 -18z m152 -18 c96 -10 125 -10 235 -1 88 7
90 7 67 -11 -12 -10 -49 -29 -82 -41 -60 -24 -82 -50 -61 -76 8 -9 3 -18 -19
-34 -16 -12 -36 -22 -45 -22 -9 0 -36 -13 -60 -30 -25 -17 -57 -30 -74 -30
-17 0 -46 -8 -66 -17 -33 -16 -36 -16 -49 2 -12 17 -19 18 -82 7 -38 -6 -97
-15 -131 -18 l-62 -6 -15 33 c-8 19 -27 48 -41 66 l-26 31 63 30 c35 16 71 39
81 49 14 17 27 19 70 15 28 -2 59 -11 68 -18 25 -22 37 -17 49 20 13 40 65 79
90 67 8 -5 49 -12 90 -16z m-2640 -110 c0 -18 6 -26 25 -30 14 -3 37 -7 51
-10 20 -5 27 -1 31 14 4 17 8 18 29 9 28 -13 31 -43 8 -69 -20 -22 -12 -36 26
-44 17 -4 30 -13 30 -21 0 -8 7 -28 15 -44 12 -24 23 -30 57 -33 l43 -4 -47
-1 c-40 -2 -48 -5 -48 -21 0 -13 -8 -21 -22 -23 -18 -2 -22 -9 -20 -27 2 -23
1 -24 -60 -18 -174 17 -258 19 -272 8 -15 -13 -46 -5 -46 13 0 6 4 18 9 25 6
9 6 22 -1 34 -12 23 -94 61 -110 51 -8 -5 -9 -2 -5 10 4 10 10 29 13 42 6 21
10 23 53 18 81 -9 88 -12 87 -36 -1 -20 4 -23 39 -23 39 0 40 1 43 40 2 22 8
44 13 50 5 5 9 33 9 62 0 50 1 53 25 53 20 0 25 -5 25 -25z m733 -39 c9 -7 17
-18 17 -24 0 -17 -57 -53 -96 -59 -44 -7 -50 -22 -29 -62 17 -34 12 -37 -25
-16 -14 8 -39 14 -57 15 -35 0 -67 35 -83 90 -7 26 -6 30 10 30 10 0 20 -5 22
-11 2 -6 41 -13 91 -16 95 -6 117 2 117 43 0 27 7 29 33 10z m1394 -38 c21
-24 45 -58 52 -75 12 -30 17 -33 55 -32 22 0 84 6 136 13 84 11 96 11 107 -3
10 -14 4 -20 -40 -43 -40 -20 -61 -40 -89 -85 -38 -59 -38 -59 -326 -221 -159
-90 -302 -166 -318 -171 -16 -5 -58 -23 -94 -40 -93 -44 -106 -42 -68 12 29
40 61 183 47 210 -6 10 -9 21 -7 23 7 6 71 6 98 -1 21 -5 29 0 48 29 29 46 28
51 -8 66 -16 7 -30 17 -30 22 0 5 14 26 30 47 30 36 31 41 24 104 l-7 67 67 0
66 0 0 -32 c0 -59 12 -66 67 -39 90 43 91 45 83 93 -8 40 -6 45 23 70 18 15
35 27 38 28 4 0 24 -19 46 -42z m-938 -12 l23 -24 -21 -47 c-30 -67 -27 -92
14 -130 42 -40 36 -45 -82 -52 -68 -5 -82 -9 -85 -23 -3 -16 -11 -15 -83 14
-93 38 -103 55 -54 96 38 31 59 29 59 -5 0 -12 7 -29 16 -36 14 -11 18 -11 29
4 7 9 19 17 27 17 18 0 53 83 44 105 -3 8 6 35 20 60 30 52 58 59 93 21z
m1606 -78 c20 -41 -3 -94 -45 -103 -22 -5 -36 -17 -49 -43 -19 -37 -19 -37 5
-85 19 -36 22 -52 14 -66 -14 -27 -5 -43 38 -66 23 -12 38 -29 40 -42 3 -21 0
-23 -51 -23 -50 0 -56 -2 -85 -39 -18 -22 -40 -42 -51 -46 -12 -3 -21 -19 -25
-39 -6 -32 -12 -36 -89 -67 -45 -18 -88 -37 -94 -42 -8 -6 -13 -34 -13 -73 0
-34 -4 -73 -9 -86 -16 -42 -72 -56 -346 -87 l-260 -29 -98 94 c-57 55 -115
101 -138 111 -40 16 -40 16 -33 57 8 51 11 56 34 56 10 0 48 16 84 35 37 19
76 35 87 35 12 0 155 76 318 170 286 163 299 171 336 225 23 35 56 66 84 82
25 15 65 39 88 55 28 19 54 28 82 28 27 0 48 7 68 24 39 33 76 37 86 11 5 -11
15 -32 22 -47z m-2086 -110 c77 -34 138 -64 136 -68 -2 -4 1 -79 7 -169 10
-152 7 -192 -11 -163 -4 6 -30 13 -58 14 -39 2 -64 -5 -117 -31 -37 -18 -69
-31 -71 -29 -20 22 -235 481 -235 503 0 3 47 5 104 5 l105 0 140 -62z m745
-67 c20 -22 13 -67 -14 -81 -12 -7 -19 -27 -24 -79 -7 -83 -11 -93 -36 -108
-16 -10 -27 -7 -69 20 -60 38 -63 56 -26 135 31 67 31 70 -2 104 l-27 28 91 0
c75 0 93 -3 107 -19z m-479 -41 c61 -28 115 -63 179 -118 50 -43 112 -90 137
-104 67 -39 69 -44 56 -108 -15 -71 -91 -165 -141 -174 -18 -4 -47 -22 -66
-41 -30 -31 -33 -40 -33 -95 0 -48 4 -65 21 -83 25 -26 32 -103 10 -95 -7 3
-43 13 -80 23 l-68 18 0 108 c0 78 -4 110 -13 116 -22 13 -47 79 -47 121 0 30
-6 45 -21 55 -19 14 -22 31 -33 209 -7 106 -11 196 -9 201 7 12 17 9 108 -33z
m294 16 l22 -24 -20 -41 c-12 -22 -25 -56 -29 -75 l-7 -35 -85 71 c-47 38 -86
79 -88 89 -3 16 3 19 45 20 26 0 66 4 88 8 22 5 43 9 46 10 3 0 16 -10 28 -23z
m-745 -263 c49 -90 71 -144 77 -183 23 -160 27 -171 75 -213 25 -22 43 -41 41
-43 -4 -4 -90 35 -169 76 -20 11 -48 35 -63 54 -14 19 -51 53 -82 77 -54 40
-57 41 -115 36 -32 -3 -70 -12 -83 -21 -13 -9 -33 -16 -44 -16 -11 0 -35 -13
-53 -29 -33 -28 -33 -28 -140 -23 l-108 5 0 52 0 53 41 -3 c22 -1 45 -10 52
-18 7 -9 24 -19 40 -23 24 -5 27 -3 27 18 0 14 9 51 20 83 11 32 20 66 20 75
0 11 10 20 25 22 21 4 25 1 25 -18 0 -21 41 -64 62 -64 4 0 13 11 18 25 8 22
12 23 41 13 42 -15 129 24 129 57 0 13 11 48 25 79 20 44 29 56 47 56 19 0 35
-22 92 -127z m309 -65 c20 -10 27 -20 27 -41 0 -17 7 -30 18 -34 25 -10 32
-23 32 -68 0 -22 7 -51 16 -63 8 -12 12 -27 9 -33 -4 -6 2 -13 14 -16 19 -5
21 -12 21 -99 0 -52 -2 -94 -4 -94 -2 0 -53 17 -113 39 -91 33 -115 46 -156
86 -36 37 -49 57 -53 89 -3 23 -9 52 -14 66 -5 14 -10 46 -13 71 -4 44 -3 46
37 69 68 39 133 49 179 28z m645 -170 c-3 -28 0 -32 37 -45 26 -9 78 -49 149
-116 l109 -102 -46 -90 c-64 -125 -60 -120 -90 -100 -35 23 -135 12 -205 -23
-37 -18 -56 -22 -63 -15 -8 8 -28 4 -71 -14 -33 -13 -62 -23 -64 -21 -2 2 -17
43 -34 90 -29 84 -40 168 -21 168 5 0 25 15 45 33 19 19 45 38 57 43 15 7 30
33 48 84 25 72 27 75 63 81 24 4 45 16 59 32 27 35 31 34 27 -5z m-1092 -22
c33 -23 76 -62 96 -85 20 -22 46 -41 57 -41 11 0 22 -4 26 -10 3 -5 33 -22 67
-37 l61 -27 -31 -8 c-18 -5 -32 -14 -33 -21 -1 -7 -2 -37 -3 -67 l-1 -55 -62
-13 -63 -14 0 -73 0 -73 -62 -4 c-35 -3 -70 -7 -78 -9 -12 -3 -16 10 -20 61
-3 36 -8 70 -12 76 -4 6 -40 14 -79 17 -39 3 -74 8 -76 11 -3 3 5 74 17 158
l22 153 -29 25 -28 26 40 19 c22 11 58 23 80 26 22 3 43 7 46 7 4 1 33 -18 65
-42z m-222 -48 l26 -23 -25 -164 c-14 -91 -27 -167 -29 -169 -2 -2 -19 4 -36
13 -26 13 -47 15 -103 10 l-70 -7 5 40 c7 51 -4 62 -64 62 -44 0 -48 2 -54 28
-9 34 -20 42 -66 42 -35 0 -37 2 -40 38 l-3 37 -52 3 c-43 2 -53 6 -53 21 0
35 64 52 239 63 121 8 170 7 183 -1 26 -16 53 -14 79 9 30 25 33 25 63 -2z
m2135 -149 c17 -21 20 -22 98 -9 88 13 101 10 145 -37 l26 -28 -25 -60 c-22
-54 -24 -70 -20 -157 l5 -97 -56 -3 -57 -3 -3 -44 c-3 -41 -4 -43 -30 -36 -15
4 -106 10 -202 14 -135 5 -185 11 -216 24 -41 18 -42 19 -31 53 8 25 7 67 -1
151 -7 64 -15 120 -18 125 -3 5 -27 22 -52 38 -26 16 -42 30 -37 30 7 1 364
47 448 59 5 0 17 -9 26 -20z m-1429 -54 c58 -20 145 -48 194 -63 l89 -27 27
-85 c44 -136 120 -387 120 -393 0 -3 -39 -27 -87 -52 -95 -51 -88 -50 -330
-59 -112 -4 -113 -3 -113 19 0 44 -10 55 -50 55 l-38 0 6 129 c4 107 2 136
-12 164 -9 19 -16 49 -16 66 l0 31 -70 0 -70 0 0 35 c0 36 -1 36 103 59 26 6
27 8 27 76 l0 69 48 4 c26 2 52 4 57 5 6 1 57 -14 115 -33z m1038 -156 c7 -52
10 -116 7 -144 -3 -27 -7 -66 -9 -85 -4 -40 -15 -107 -22 -132 -7 -25 -132
-89 -153 -79 -9 5 -92 -1 -196 -14 -99 -13 -180 -23 -180 -22 -1 1 -7 16 -14
32 -8 17 -35 95 -62 175 l-48 144 57 22 c35 13 70 19 90 16 21 -3 39 1 50 11
9 8 52 22 95 31 75 17 78 17 110 -3 18 -11 38 -17 44 -13 6 4 34 53 62 110
l52 103 52 -29 52 -29 13 -94z m-2104 105 c11 -8 39 -14 62 -14 l41 0 7 -61
c3 -34 6 -81 6 -104 0 -24 7 -59 15 -78 8 -20 15 -47 15 -61 0 -23 -2 -24 -37
-15 -21 6 -47 14 -58 19 -11 4 -51 16 -90 25 -141 33 -147 35 -135 50 9 11 6
14 -17 17 -23 2 -29 8 -31 34 -2 19 3 36 12 44 20 16 20 54 1 70 -17 14 -20
50 -5 50 6 0 15 10 21 23 9 21 15 22 91 19 50 -2 90 -9 102 -18z m287 -115
c44 -22 69 -20 69 7 0 11 5 14 16 10 9 -3 37 -6 62 -6 26 0 52 -4 59 -8 6 -4
16 -48 22 -97 6 -50 13 -106 17 -126 6 -36 6 -37 -32 -42 -22 -3 -86 1 -144 9
-58 8 -124 17 -147 20 -41 5 -43 7 -43 38 0 19 -7 50 -15 69 -8 20 -15 57 -15
82 0 43 1 45 29 45 17 0 33 5 36 10 10 16 42 12 86 -11z m549 -114 c0 -31 5
-47 15 -51 12 -5 14 -31 12 -147 l-2 -142 38 -3 c33 -3 37 -6 37 -31 0 -27 -2
-28 -68 -34 -39 -3 -116 -22 -182 -45 -182 -62 -180 -62 -249 -2 -33 28 -86
62 -118 75 l-58 24 -3 106 c-2 98 -1 106 15 101 41 -11 201 -28 243 -24 50 3
52 8 36 94 -7 40 -6 42 25 53 18 6 56 11 85 11 51 0 54 2 54 24 0 25 12 30 93
34 26 2 27 0 27 -43z m1956 -114 c41 -24 42 -26 29 -51 -12 -23 -12 -30 0 -46
11 -17 10 -27 -8 -74 -22 -54 -24 -56 -122 -107 -164 -84 -312 -104 -463 -62
-41 11 -76 19 -78 17 -5 -5 -54 -245 -54 -263 0 -19 102 -27 116 -9 20 25 52
17 59 -15 5 -24 12 -30 36 -33 25 -2 34 -11 49 -45 l19 -43 -204 0 c-138 0
-205 3 -205 11 0 29 26 114 60 194 32 76 41 115 59 255 25 187 41 270 52 270
4 0 27 -9 51 -19 39 -16 62 -18 174 -14 94 4 146 1 191 -10 34 -8 64 -12 67
-9 3 3 6 25 6 49 l0 44 62 -7 c39 -4 78 -17 104 -33z m-2882 -46 c44 -4 87
-12 95 -18 8 -7 35 -13 60 -14 25 -1 74 -5 109 -8 l62 -7 0 -70 0 -70 -27 6
c-16 3 -73 13 -128 21 -151 23 -145 21 -145 58 -1 43 -21 67 -56 67 -18 1 -44
14 -69 35 -39 33 -39 35 -20 49 19 14 21 13 29 -13 8 -27 11 -29 90 -36z
m2162 -157 c-3 -18 -12 -80 -20 -138 -11 -73 -26 -129 -50 -185 -19 -44 -40
-108 -47 -143 l-13 -63 -125 3 -125 3 -38 140 c-21 77 -51 181 -66 230 -16 50
-29 91 -28 92 5 6 353 44 370 39 12 -2 44 7 76 24 30 16 59 29 63 30 4 0 6
-15 3 -32z m-461 -305 c39 -133 53 -193 67 -277 2 -15 -5 -21 -27 -26 -17 -4
-60 -23 -96 -43 -67 -38 -139 -50 -139 -24 0 6 -18 131 -40 277 -22 146 -40
275 -40 287 0 18 16 31 83 64 45 23 84 46 86 53 5 14 48 -113 106 -311z
m-1396 256 c20 -7 59 -20 86 -31 l50 -18 -3 -48 c-4 -54 -30 -81 -77 -82 -16
0 -41 -6 -55 -13 -14 -7 -47 -14 -75 -15 -39 -1 -53 -6 -65 -24 -43 -63 -68
-84 -132 -107 -20 -7 -26 -15 -21 -27 9 -24 91 -10 119 21 15 16 29 22 42 18
14 -3 25 2 34 16 7 12 21 21 31 21 11 0 21 9 24 20 8 31 78 29 87 -2 10 -41 6
-88 -10 -113 -19 -29 -74 -212 -66 -220 13 -12 128 -4 150 11 13 9 25 14 28
11 3 -2 -73 -62 -168 -132 -172 -126 -368 -305 -368 -335 1 -8 25 -32 55 -53
50 -35 54 -40 44 -60 -7 -12 -13 -23 -14 -25 -5 -6 -149 70 -160 83 -11 14
-75 9 -75 -6 0 -5 -11 -3 -23 6 -26 17 -49 57 -53 92 -2 19 3 22 34 25 30 2
38 8 40 26 3 19 9 22 52 22 38 0 52 4 59 19 6 10 7 21 4 25 -3 3 -39 6 -79 6
-56 0 -73 3 -78 16 -8 22 -52 15 -48 -8 2 -14 -4 -18 -32 -18 l-34 0 -7 63
c-3 34 -5 102 -3 152 l3 89 35 8 c19 4 70 10 113 13 l77 7 0 54 c0 51 2 56 33
74 18 11 50 20 73 20 27 0 47 6 58 19 22 24 13 29 -60 37 -66 7 -127 31 -121
48 2 6 22 15 45 21 23 5 47 17 54 26 8 10 36 19 73 23 33 4 64 11 69 16 5 5
16 4 26 -2 21 -13 69 -3 76 17 9 24 -29 106 -53 115 -16 7 -23 19 -25 47 -3
32 -7 38 -28 41 -14 2 -32 5 -40 8 -13 5 -12 7 3 15 9 6 17 16 17 23 0 10 24
9 122 -5 67 -11 138 -24 157 -30z m921 -59 c0 -13 -141 -483 -146 -489 -4 -5
-254 98 -268 110 -4 4 15 76 43 161 28 84 51 165 51 181 0 25 3 27 43 28 51 2
259 15 270 17 4 1 7 -3 7 -8z m214 -257 c21 -148 41 -283 44 -300 4 -28 2 -33
-16 -33 -26 0 -344 80 -354 89 -4 3 18 89 48 191 30 102 64 215 75 253 l20 67
72 0 72 0 39 -267z m-554 217 c0 -55 -41 -88 -94 -74 -22 5 -30 -7 -116 -166
-50 -94 -104 -198 -119 -231 l-27 -60 -37 41 -37 42 -34 -21 c-44 -28 -130
-30 -122 -3 3 9 12 44 22 77 9 33 25 74 35 91 13 22 19 50 19 93 0 61 0 61 29
61 15 0 40 -9 54 -20 14 -11 28 -20 31 -20 3 0 53 34 111 76 68 47 135 86 183
104 93 35 102 36 102 10z m-329 -46 c10 -12 23 -14 54 -9 48 7 44 2 -55 -67
l-66 -46 -24 19 c-19 14 -42 19 -100 19 -68 1 -73 2 -56 15 11 8 37 15 58 15
21 0 38 5 38 10 0 6 9 10 19 10 11 0 21 5 23 12 4 11 59 36 84 37 6 1 18 -6
25 -15z m380 -370 c74 -31 135 -57 137 -58 2 -3 -137 -398 -143 -404 -1 -1
-55 17 -120 40 l-118 42 7 85 c4 67 16 116 53 219 26 72 48 132 49 132 1 0 61
-25 135 -56z m1656 2 c-3 -7 -8 -33 -12 -57 l-7 -44 -74 3 -74 4 0 -32 c0 -18
14 -73 31 -124 26 -78 30 -100 24 -153 l-7 -63 -69 0 c-39 0 -79 5 -90 10 -58
32 -31 -55 54 -174 32 -44 54 -83 50 -86 -5 -4 -62 -22 -128 -40 -149 -40
-158 -45 -151 -75 6 -22 2 -24 -50 -31 -42 -5 -65 -3 -89 9 -30 14 -38 14 -95
-4 -34 -10 -66 -17 -71 -13 -13 8 -11 82 3 86 8 3 4 34 -15 108 -23 95 -24
105 -9 116 14 10 14 33 -1 279 -10 160 -21 273 -28 281 -10 12 53 14 401 14
345 0 411 -2 407 -14z m-1204 -162 c-2 -25 -62 -383 -68 -410 -4 -18 -10 -20
-67 -17 -47 3 -94 17 -185 55 l-122 50 51 142 c66 185 85 238 93 257 5 15 22
12 153 -21 128 -32 147 -39 145 -56z m387 94 c3 -20 30 -422 30 -445 0 -24 -5
-33 -16 -33 -13 0 -15 -7 -10 -35 3 -19 9 -50 12 -68 l6 -32 -95 -31 c-78 -26
-97 -29 -101 -18 -3 8 -21 130 -41 272 -19 141 -37 267 -40 279 -4 19 0 23 32
29 21 3 63 20 93 38 30 17 64 34 75 38 21 6 55 10 55 6z m-280 -90 c0 -2 18
-127 40 -278 21 -151 38 -276 36 -277 -3 -4 -238 25 -242 30 -4 3 55 366 77
475 l10 52 40 0 c21 0 39 -1 39 -2z m-433 -396 c81 -36 128 -50 178 -55 37 -4
69 -8 71 -10 2 -2 -19 -122 -46 -268 -28 -145 -50 -267 -50 -271 0 -4 -10 -4
-22 1 -32 12 -282 123 -286 126 -2 2 35 75 82 161 48 87 85 163 82 169 -2 6
-28 17 -57 23 -46 11 -55 11 -65 -3 -14 -18 -68 -21 -61 -2 3 6 18 49 33 95
16 45 29 82 30 82 1 0 51 -22 111 -48z m1427 -153 c5 -32 2 -46 -15 -70 -12
-17 -32 -35 -46 -40 -27 -10 -26 -16 8 -96 17 -39 21 -42 48 -37 29 6 29 6 45
-66 9 -39 14 -75 11 -80 -3 -5 -20 -12 -38 -15 -17 -4 -46 -13 -64 -21 l-32
-13 29 -70 c27 -68 28 -71 9 -71 -30 0 -34 -28 -10 -60 l21 -29 -38 -7 c-50
-9 -62 -20 -62 -59 0 -45 15 -54 80 -45 59 8 75 4 47 -11 -13 -8 -16 -18 -11
-47 7 -43 -7 -60 -60 -77 -22 -7 -34 -19 -41 -43 -7 -23 -15 -32 -31 -32 -28
0 -84 -28 -91 -46 -3 -8 -20 -14 -41 -14 -25 0 -44 -8 -63 -26 -16 -16 -34
-24 -43 -21 -22 9 -76 187 -64 210 13 25 3 47 -21 47 -11 0 -22 8 -24 18 -9
31 -18 92 -14 92 23 0 253 52 260 59 11 11 -11 155 -27 175 -9 12 -23 12 -76
4 -41 -6 -70 -7 -80 -1 -10 7 -27 6 -50 -2 -32 -11 -35 -16 -38 -53 -4 -50
-19 -54 -58 -15 -25 25 -28 40 -48 199 l-22 172 58 18 c55 16 60 16 97 0 29
-14 50 -16 82 -11 70 12 87 21 91 51 3 26 9 29 146 68 114 32 142 43 142 57 0
10 -4 21 -10 24 -18 11 -10 25 14 25 20 0 24 -6 30 -41z m-675 -27 c6 -21 5
-34 -4 -43 -10 -11 -7 -55 16 -229 15 -118 28 -225 28 -236 1 -20 -8 -24 -86
-38 -49 -9 -91 -16 -94 -16 -4 0 -10 24 -13 54 -4 30 -13 59 -19 64 -7 5 -97
12 -200 15 -104 3 -190 7 -193 9 -4 4 61 383 72 421 6 20 26 21 164 6 72 -9
100 -16 100 -25 0 -21 26 -16 125 20 50 19 91 32 93 31 1 -1 7 -16 11 -33z
m-1040 -166 c16 -26 20 -44 16 -73 l-6 -38 206 -84 c113 -46 208 -88 211 -93
3 -5 3 -20 0 -32 -5 -19 -14 -24 -52 -29 -56 -6 -61 -11 -69 -62 -6 -37 -5
-42 19 -53 35 -16 34 -35 -2 -28 -24 6 -29 3 -39 -24 -14 -38 -45 -40 -114 -5
l-50 26 -16 -38 c-9 -21 -19 -70 -21 -109 l-4 -71 31 -11 30 -11 -37 -89 c-28
-69 -40 -88 -49 -80 -7 6 -13 17 -13 26 0 12 -11 14 -64 9 -59 -6 -64 -5 -70
15 -3 13 7 49 24 89 17 37 30 70 30 74 0 13 -56 62 -78 69 -12 4 -22 13 -22
19 0 7 7 126 17 265 l17 252 30 0 c53 0 86 51 51 80 -17 14 -20 40 -6 40 5 0
19 -15 30 -34z"/>
<path d="M240 1144 l-32 -27 89 -89 c99 -100 154 -128 179 -93 25 34 17 59
-26 77 -35 15 -40 20 -35 41 6 24 -15 42 -132 110 -6 4 -26 -5 -43 -19z m101
-40 c53 -32 58 -37 53 -63 -5 -24 -2 -29 18 -34 38 -10 60 -31 52 -51 -12 -32
-55 -9 -141 77 -63 62 -80 84 -71 94 15 19 24 17 89 -23z"/>
</g>
</svg>
